<?xml version="1.0" standalone="no"?>
<!DOCTYPE svg PUBLIC "-//W3C//DTD SVG 20010904//EN"
 "http://www.w3.org/TR/2001/REC-SVG-20010904/DTD/svg10.dtd">
<svg version="1.0" xmlns="http://www.w3.org/2000/svg"
 width="260.000000pt" height="260.000000pt" viewBox="0 0 260.000000 260.000000"
 preserveAspectRatio="xMidYMid meet">
<metadata>
Created by potrace 1.11, written by Peter Selinger 2001-2013
</metadata>
<g transform="translate(0.000000,260.000000) scale(0.100000,-0.100000)"
fill="#000000" stroke="none">
<path d="M759 2442 c-1 -35 -1 -2271 0 -2295 1 -16 19 -17 288 -16 320 2 402
13 517 69 149 74 246 233 272 448 11 89 7 340 -6 411 -22 119 -93 232 -174
276 -34 19 -47 35 -27 35 21 0 110 82 143 132 54 80 69 147 70 311 2 180 -19
288 -77 392 -45 82 -128 158 -217 200 -119 56 -175 63 -500 63 l-288 0 -1 -26z
m617 -312 c104 -40 148 -133 147 -310 -1 -158 -52 -256 -152 -290 -56 -18
-270 -29 -272 -13 -1 4 -2 148 -3 318 l-1 310 50 5 c62 6 191 -5 231 -20z m15
-942 c100 -44 138 -143 133 -348 -3 -141 -12 -196 -38 -248 -46 -91 -109 -119
-276 -121 l-115 -2 1 363 c1 200 2 368 3 373 2 16 249 2 292 -17z"/>
</g>
</svg>
